HIERARCHY
ROOT Hips
{
	OFFSET 0.000000 100.481300 0.000000
	CHANNELS 6 Xposition Yposition Zposition Xrotation Yrotation Zrotation
	JOINT Spine
	{
		OFFSET -0.279200 12.230698 -2.892100
		CHANNELS 3 Xrotation Yrotation Zrotation
		JOINT Spine1
		{
			OFFSET -0.325700 14.269203 -3.374200
			CHANNELS 3 Xrotation Yrotation Zrotation
			JOINT Spine2
			{
				OFFSET -0.372300 16.307602 -0.352600
				CHANNELS 3 Xrotation Yrotation Zrotation
				JOINT Neck
				{
					OFFSET -0.418800 17.814194 8.416900
					CHANNELS 3 Xrotation Yrotation Zrotation
					JOINT Head
					{
						OFFSET 0.000000 7.031097 3.806800
						CHANNELS 3 Xrotation Yrotation Zrotation
						JOINT HeadTop_End
						{
							OFFSET 0.000000 24.646606 12.978600
							CHANNELS 3 Xrotation Yrotation Zrotation
							End Site
							{
								OFFSET 0.000000 27.854965 0.000000
							}
						}
					}
				}
				JOINT LeftShoulder
				{
					OFFSET 16.952999 14.495407 -7.737500
					CHANNELS 3 Xrotation Yrotation Zrotation
					JOINT LeftArm
					{
						OFFSET 9.308998 -2.777710 0.208600
						CHANNELS 3 Xrotation Yrotation Zrotation
						JOINT LeftForeArm
						{
							OFFSET 29.972298 0.000000 0.000000
							CHANNELS 3 Xrotation Yrotation Zrotation
							JOINT LeftHand
							{
								OFFSET 26.026505 0.000000 0.000000
								CHANNELS 3 Xrotation Yrotation Zrotation
								JOINT LeftHandThumb1
								{
									OFFSET 12.240501 -7.147949 9.207150
									CHANNELS 3 Xrotation Yrotation Zrotation
									JOINT LeftHandThumb2
									{
										OFFSET 4.138618 -2.389435 2.389433
										CHANNELS 3 Xrotation Yrotation Zrotation
										JOINT LeftHandThumb3
										{
											OFFSET 2.726913 -1.574387 1.574386
											CHANNELS 3 Xrotation Yrotation Zrotation
											JOINT LeftHandThumb4
											{
												OFFSET 3.941010 -2.275345 2.275342
												CHANNELS 3 Xrotation Yrotation Zrotation
												End Site
												{
													OFFSET -0.005798 5.087799 0.009903
												}
											}
										}
									}
								}
								JOINT LeftHandIndex1
								{
									OFFSET 24.424698 -1.985611 5.953459
									CHANNELS 3 Xrotation Yrotation Zrotation
									JOINT LeftHandIndex2
									{
										OFFSET 6.426697 0.000000 0.000000
										CHANNELS 3 Xrotation Yrotation Zrotation
										JOINT LeftHandIndex3
										{
											OFFSET 5.337898 0.000000 0.000000
											CHANNELS 3 Xrotation Yrotation Zrotation
											JOINT LeftHandIndex4
											{
												OFFSET 4.409401 0.000000 0.000000
												CHANNELS 3 Xrotation Yrotation Zrotation
												End Site
												{
													OFFSET 0.000000 4.409363 0.014373
												}
											}
										}
									}
								}
								JOINT LeftHandMiddle1
								{
									OFFSET 23.810104 0.000000 0.000000
									CHANNELS 3 Xrotation Yrotation Zrotation
									JOINT LeftHandMiddle2
									{
										OFFSET 7.176498 0.000000 0.000000
										CHANNELS 3 Xrotation Yrotation Zrotation
										JOINT LeftHandMiddle3
										{
											OFFSET 6.774902 0.000000 0.000000
											CHANNELS 3 Xrotation Yrotation Zrotation
											JOINT LeftHandMiddle4
											{
												OFFSET 5.403328 0.000000 0.000000
												CHANNELS 3 Xrotation Yrotation Zrotation
												End Site
												{
													OFFSET -0.027702 5.403244 0.017414
												}
											}
										}
									}
								}
								JOINT LeftHandRing1
								{
									OFFSET 22.908401 -0.839279 -6.020567
									CHANNELS 3 Xrotation Yrotation Zrotation
									JOINT LeftHandRing2
									{
										OFFSET 6.337502 0.000000 0.000000
										CHANNELS 3 Xrotation Yrotation Zrotation
										JOINT LeftHandRing3
										{
											OFFSET 5.779297 0.000000 0.000000
											CHANNELS 3 Xrotation Yrotation Zrotation
											JOINT LeftHandRing4
											{
												OFFSET 4.965698 0.000000 0.000000
												CHANNELS 3 Xrotation Yrotation Zrotation
												End Site
												{
													OFFSET 0.000000 4.965668 0.016186
												}
											}
										}
									}
								}
								JOINT LeftHandPinky1
								{
									OFFSET 20.037003 -1.530319 -10.950146
									CHANNELS 3 Xrotation Yrotation Zrotation
									JOINT LeftHandPinky2
									{
										OFFSET 5.254700 0.000000 0.000000
										CHANNELS 3 Xrotation Yrotation Zrotation
										JOINT LeftHandPinky3
										{
											OFFSET 4.810204 0.000000 0.000000
											CHANNELS 3 Xrotation Yrotation Zrotation
											JOINT LeftHandPinky4
											{
												OFFSET 3.647202 0.000000 0.000000
												CHANNELS 3 Xrotation Yrotation Zrotation
												End Site
												{
													OFFSET 0.000000 3.647186 0.011889
												}
											}
										}
									}
								}
							}
						}
					}
				}
				JOINT RightShoulder
				{
					OFFSET -15.141001 14.495407 -7.737500
					CHANNELS 3 Xrotation Yrotation Zrotation
					JOINT RightArm
					{
						OFFSET -9.308998 -2.777710 0.208500
						CHANNELS 3 Xrotation Yrotation Zrotation
						JOINT RightForeArm
						{
							OFFSET -29.972300 0.000000 0.000000
							CHANNELS 3 Xrotation Yrotation Zrotation
							JOINT RightHand
							{
								OFFSET -26.026505 0.000000 0.000000
								CHANNELS 3 Xrotation Yrotation Zrotation
								JOINT RightHandThumb1
								{
									OFFSET -12.240601 -7.148026 9.207092
									CHANNELS 3 Xrotation Yrotation Zrotation
									JOINT RightHandThumb2
									{
										OFFSET -4.138618 -2.389435 2.389433
										CHANNELS 3 Xrotation Yrotation Zrotation
										JOINT RightHandThumb3
										{
											OFFSET -2.726974 -1.574417 1.574421
											CHANNELS 3 Xrotation Yrotation Zrotation
											JOINT RightHandThumb4
											{
												OFFSET -3.941010 -2.275345 2.275343
												CHANNELS 3 Xrotation Yrotation Zrotation
												End Site
												{
													OFFSET 0.005814 5.087799 0.009927
												}
											}
										}
									}
								}
								JOINT RightHandIndex1
								{
									OFFSET -24.424698 -1.985657 5.953444
									CHANNELS 3 Xrotation Yrotation Zrotation
									JOINT RightHandIndex2
									{
										OFFSET -6.426697 0.000000 0.000000
										CHANNELS 3 Xrotation Yrotation Zrotation
										JOINT RightHandIndex3
										{
											OFFSET -5.337898 0.000000 0.000000
											CHANNELS 3 Xrotation Yrotation Zrotation
											JOINT RightHandIndex4
											{
												OFFSET -4.409401 0.000000 0.000000
												CHANNELS 3 Xrotation Yrotation Zrotation
												End Site
												{
													OFFSET 0.000000 4.409363 0.014408
												}
											}
										}
									}
								}
								JOINT RightHandMiddle1
								{
									OFFSET -23.810097 0.000000 0.000000
									CHANNELS 3 Xrotation Yrotation Zrotation
									JOINT RightHandMiddle2
									{
										OFFSET -7.176498 0.000000 0.000000
										CHANNELS 3 Xrotation Yrotation Zrotation
										JOINT RightHandMiddle3
										{
											OFFSET -6.774902 0.000000 0.000000
											CHANNELS 3 Xrotation Yrotation Zrotation
											JOINT RightHandMiddle4
											{
												OFFSET -5.403328 0.000000 0.000000
												CHANNELS 3 Xrotation Yrotation Zrotation
												End Site
												{
													OFFSET 0.027702 5.403244 0.017457
												}
											}
										}
									}
								}
								JOINT RightHandRing1
								{
									OFFSET -22.908302 -0.839325 -6.020576
									CHANNELS 3 Xrotation Yrotation Zrotation
									JOINT RightHandRing2
									{
										OFFSET -6.337502 0.000000 0.000000
										CHANNELS 3 Xrotation Yrotation Zrotation
										JOINT RightHandRing3
										{
											OFFSET -5.779297 0.000000 0.000000
											CHANNELS 3 Xrotation Yrotation Zrotation
											JOINT RightHandRing4
											{
												OFFSET -4.965698 0.000000 0.000000
												CHANNELS 3 Xrotation Yrotation Zrotation
												End Site
												{
													OFFSET 0.000000 4.965668 0.016226
												}
											}
										}
									}
								}
								JOINT RightHandPinky1
								{
									OFFSET -20.037003 -1.530334 -10.950259
									CHANNELS 3 Xrotation Yrotation Zrotation
									JOINT RightHandPinky2
									{
										OFFSET -5.254700 0.000000 0.000000
										CHANNELS 3 Xrotation Yrotation Zrotation
										JOINT RightHandPinky3
										{
											OFFSET -4.810204 0.000000 0.000000
											CHANNELS 3 Xrotation Yrotation Zrotation
											JOINT RightHandPinky4
											{
												OFFSET -3.647202 0.000000 0.000000
												CHANNELS 3 Xrotation Yrotation Zrotation
												End Site
												{
													OFFSET 0.000000 3.647186 0.011917
												}
											}
										}
									}
								}
							}
						}
					}
				}
			}
		}
	}
	JOINT LeftUpLeg
	{
		OFFSET 15.427100 -6.655098 0.678600
		CHANNELS 3 Xrotation Yrotation Zrotation
		JOINT LeftLeg
		{
			OFFSET 4.081073 -39.591068 13.024000
			CHANNELS 3 Xrotation Yrotation Zrotation
			JOINT LeftFoot
			{
				OFFSET -4.081074 -37.707932 -15.979700
				CHANNELS 3 Xrotation Yrotation Zrotation
				JOINT LeftToeBase
				{
					OFFSET 5.346399 -15.068900 20.645000
					CHANNELS 3 Xrotation Yrotation Zrotation
					JOINT LeftToe_End
					{
						OFFSET 2.754700 0.931300 11.300900
						CHANNELS 3 Xrotation Yrotation Zrotation
						End Site
						{
							OFFSET 0.000000 11.669021 0.000000
						}
					}
				}
			}
		}
	}
	JOINT RightUpLeg
	{
		OFFSET -15.569500 -6.655098 0.678600
		CHANNELS 3 Xrotation Yrotation Zrotation
		JOINT RightLeg
		{
			OFFSET -4.081825 -39.591045 13.023800
			CHANNELS 3 Xrotation Yrotation Zrotation
			JOINT RightFoot
			{
				OFFSET 4.081824 -37.707954 -15.979600
				CHANNELS 3 Xrotation Yrotation Zrotation
				JOINT RightToeBase
				{
					OFFSET -5.346400 -15.068900 20.645000
					CHANNELS 3 Xrotation Yrotation Zrotation
					JOINT RightToe_End
					{
						OFFSET -2.754700 0.931300 11.300900
						CHANNELS 3 Xrotation Yrotation Zrotation
						End Site
						{
							OFFSET 0.000000 11.669021 0.000000
						}
					}
				}
			}
		}
	}
}
MOTION
Frames: 4
Frame Time: 0.033333
122.840027 74.764305 -2.351616 6.319235 17.806015 -14.147646 -0.949321 -1.865513 2.800528 -2.085258 -3.477245 -0.178981 -2.085257 -3.477239 -0.178986 2.686025 18.366688 2.154715 9.049383 39.822376 -23.856835 -0.000001 -0.000001 -0.000001 4.268817 -9.211936 -19.186956 1.221649 4.823031 -34.060497 43.951168 -16.369001 -10.579529 34.441963 -9.422167 14.365694 -6.061047 -1.224136 8.867840 2.133746 6.289871 2.124584 0.000003 0.000004 0.000001 -0.000003 0.000000 -0.000001 -0.031523 -0.827250 -9.168410 0.053398 0.716781 -17.286210 0.000004 -0.000002 0.000006 0.000001 -0.000000 0.000000 -0.158927 0.524967 -13.264758 -0.094197 -0.398617 -10.919359 0.000005 0.000002 -0.000000 0.000000 -0.000000 -0.000001 -1.014071 7.505422 -17.831705 -0.128933 -1.658938 -13.526162 0.000000 0.000002 0.000003 -0.000000 0.000001 -0.000003 -1.033296 13.398159 -13.250873 -0.513438 -5.466729 -22.995073 -0.000002 0.000001 -0.000001 0.000000 0.000000 0.000001 0.916055 -2.437381 15.765350 8.360638 -21.251587 38.246843 38.881508 24.930158 13.252177 32.676305 7.724656 0.112438 -11.704835 6.638685 13.043694 1.802594 -5.540935 -2.039521 0.000002 0.000000 0.000022 -0.000003 -0.000000 -0.000001 -0.373811 6.502824 17.280884 0.120550 -1.119665 16.859810 0.000001 -0.000000 0.000000 0.000003 0.000001 -0.000002 -1.298162 -2.211927 25.241444 -0.475605 1.409756 25.384530 -0.000002 -0.000001 0.000012 -0.000003 -0.000000 -0.000001 2.763610 -11.521616 33.593158 -0.410979 2.673220 22.712809 -0.000000 0.000000 0.000004 0.000001 -0.000001 0.000001 3.769163 -20.157007 22.609856 -0.686070 6.546875 20.613050 0.000002 -0.000001 -0.000002 0.000002 0.000003 -0.000002 -39.605555 44.670868 20.998935 71.646424 -26.253910 -8.373083 5.212814 -2.537444 -0.888563 -27.817510 -24.521725 43.008827 0.000000 -0.000000 0.000000 -48.643224 -6.406024 23.879018 44.512920 -24.343059 2.630324 -4.475187 2.146930 -11.717844 0.063587 -2.349144 1.686649 0.000000 -0.000000 0.000000 
126.052917 73.490929 -2.401156 5.735122 17.792755 -14.202743 -0.977916 -1.769061 3.051850 -2.156098 -3.345071 -0.324016 -2.156096 -3.345075 -0.324013 4.031576 18.157995 1.331892 8.404595 39.719958 -23.682754 0.000000 0.000002 -0.000001 4.354609 -8.938885 -19.530566 1.276879 5.825827 -33.177702 43.814943 -16.747067 -10.377468 34.332960 -8.916830 14.853312 -6.409132 -1.244748 9.496289 2.211785 6.466666 2.144038 0.000005 0.000002 -0.000002 -0.000000 0.000001 0.000001 -0.028333 -0.807292 -8.965375 0.059515 0.736521 -17.116688 0.000003 -0.000002 0.000006 -0.000001 -0.000000 -0.000001 -0.149770 0.564474 -12.852597 -0.090671 -0.380366 -10.749483 0.000005 0.000001 0.000001 0.000000 -0.000000 0.000001 -0.630836 7.468275 -17.364287 -0.126512 -1.648837 -13.355509 -0.000001 0.000003 0.000001 -0.000000 0.000000 0.000000 -0.646145 13.396514 -12.530473 -0.512014 -5.463377 -22.824119 -0.000002 0.000002 -0.000002 0.000001 0.000000 0.000001 0.899294 -2.580459 15.336633 8.839274 -20.854852 39.426191 38.824021 24.717358 12.494747 32.711067 8.651751 -1.160977 -11.704841 6.638685 13.043694 1.802596 -5.540935 -2.039521 0.000001 0.000001 0.000021 0.000003 0.000001 0.000000 -0.373817 6.502824 17.280881 0.120550 -1.119666 16.859810 -0.000002 0.000001 -0.000002 -0.000001 0.000000 -0.000002 -1.331391 -2.145152 26.227390 -0.536657 1.534020 26.932991 -0.000001 -0.000003 0.000008 -0.000000 0.000003 -0.000001 2.512620 -11.137303 34.588983 -0.455613 2.776392 24.019644 0.000001 -0.000000 0.000001 -0.000000 -0.000001 0.000001 3.616119 -19.800051 23.502611 -0.704382 6.594440 21.278876 -0.000002 -0.000001 -0.000002 0.000001 0.000002 -0.000001 -43.180975 35.980689 23.311265 79.388689 -12.797481 -5.991297 8.040383 0.297561 -1.698168 -49.312173 -32.400997 23.992634 0.000000 -0.000001 -0.000000 -49.597306 -7.762113 22.531490 48.915752 -22.616175 0.957161 -6.667432 1.612681 -8.568728 0.075197 -2.348852 1.710917 -0.000000 -0.000000 -0.000000 
129.617691 73.293915 -2.346726 5.313852 17.562484 -13.698446 -1.022378 -1.678616 2.970974 -2.240759 -3.235697 -0.523104 -2.240761 -3.235693 -0.523111 4.743944 18.190576 0.410902 7.921162 39.727252 -23.462390 -0.000001 0.000000 -0.000003 4.403040 -8.848799 -19.837410 1.290109 6.868221 -32.512056 43.765089 -16.658867 -10.331631 34.647265 -8.732849 14.810386 -6.672188 -1.262833 9.971442 2.270780 6.600361 2.158605 0.000004 0.000003 0.000001 0.000000 0.000001 0.000002 -0.025969 -0.792185 -8.811826 0.064107 0.751497 -16.988508 0.000006 -0.000001 0.000004 -0.000000 -0.000000 -0.000001 -0.143028 0.594391 -12.540909 -0.088081 -0.366537 -10.621009 0.000007 0.000002 -0.000001 0.000001 0.000000 -0.000000 -0.340482 7.444448 -17.011102 -0.124708 -1.641191 -13.226518 0.000002 0.000003 0.000001 0.000002 -0.000001 0.000001 -0.353109 13.401878 -11.986156 -0.510945 -5.460822 -22.694837 -0.000003 0.000001 -0.000003 -0.000003 0.000000 -0.000000 0.870241 -2.605964 14.853906 9.277593 -20.600078 40.668162 38.635457 24.366493 11.690672 32.984210 9.377298 -2.681910 -11.704839 6.638685 13.043694 1.802587 -5.540934 -2.039521 0.000002 0.000002 0.000021 -0.000001 0.000000 0.000000 -0.373813 6.502823 17.280881 0.120552 -1.119666 16.859810 -0.000001 0.000001 -0.000003 -0.000003 -0.000000 -0.000001 -1.358045 -2.093861 26.997754 -0.586668 1.629934 28.142973 -0.000004 -0.000002 0.000004 -0.000001 -0.000001 -0.000001 2.308486 -10.843757 35.369663 -0.492331 2.856738 25.046399 0.000001 0.000001 0.000001 -0.000000 -0.000001 -0.000000 3.489565 -19.525378 24.201467 -0.719249 6.631829 21.804686 -0.000000 0.000002 0.000001 0.000005 0.000001 0.000002 -43.576549 24.121916 23.833438 86.591663 -0.627633 -5.915201 5.784902 1.459101 0.310373 -48.962051 -17.427463 11.214146 -0.000000 0.000000 -0.000000 -49.703860 -7.600907 20.647612 51.493551 -20.799985 -0.663239 -8.253770 0.865038 -5.280038 0.084577 -2.348622 1.730537 0.000000 -0.000000 -0.000000 
133.643570 73.926903 -2.291564 4.899764 17.238301 -12.718838 -1.075228 -1.590585 2.502566 -2.318732 -3.096392 -0.710345 -2.318733 -3.096389 -0.710350 5.166390 18.276516 -0.115999 7.698613 39.826765 -23.415999 -0.000000 -0.000001 -0.000001 4.408525 -8.882385 -19.964769 1.303613 7.768124 -32.111711 43.872033 -16.266143 -10.423844 35.307819 -8.841525 14.683896 -6.838583 -1.275424 10.272081 2.308093 6.684972 2.167756 0.000004 0.000002 0.000001 0.000001 -0.000000 0.000004 -0.024489 -0.782614 -8.714650 0.066995 0.760950 -16.907380 0.000004 -0.000001 0.000005 -0.000002 -0.000000 -0.000000 -0.138845 0.613355 -12.343664 -0.086452 -0.357802 -10.539736 0.000004 0.000002 -0.000002 0.000000 -0.000000 -0.000001 -0.156506 7.431298 -16.787688 -0.123586 -1.636356 -13.144872 -0.000001 0.000003 -0.000000 -0.000001 0.000001 -0.000002 -0.167566 13.408233 -11.641876 -0.510260 -5.459199 -22.613037 -0.000002 0.000002 -0.000003 0.000002 0.000000 0.000000 0.841225 -2.474841 14.500413 9.642248 -20.635685 41.348230 38.521495 24.470840 11.322108 33.089896 9.697699 -3.184685 -11.704844 6.638683 13.043695 1.802592 -5.540935 -2.039521 0.000002 0.000002 0.000021 -0.000002 -0.000000 0.000001 -0.373813 6.502824 17.280882 0.120552 -1.119666 16.859808 -0.000003 -0.000000 0.000002 -0.000004 0.000001 -0.000001 -1.375692 -2.060895 27.499132 -0.620305 1.691771 28.930530 -0.000001 -0.000002 0.000011 -0.000001 0.000001 -0.000001 2.171882 -10.655968 35.879120 -0.517111 2.908909 25.717696 -0.000000 0.000000 0.000001 -0.000001 -0.000000 -0.000000 3.403952 -19.348661 24.657092 -0.729194 6.656306 22.149967 -0.000001 0.000000 -0.000001 -0.000001 -0.000001 -0.000000 -42.453027 12.825926 23.580550 92.921022 10.022141 -6.070499 0.532068 1.146722 3.053742 -20.739588 -0.077886 -10.359963 -0.000003 0.000001 0.000000 -48.985789 -6.071476 17.976204 52.735983 -18.887942 -1.864192 -9.390282 0.064408 -1.777950 0.090854 -2.348464 1.743647 0.000000 -0.000001 0.000000 
